<?xml version="1.0" encoding="utf-8"?>
<!-- Generator: Adobe Illustrator 22.1.0, SVG Export Plug-In . SVG Version: 6.00 Build 0)  -->
<svg version="1.1" id="Layer_1" xmlns="http://www.w3.org/2000/svg" xmlns:xlink="http://www.w3.org/1999/xlink" x="0px" y="0px"
	 viewBox="0 0 1080 1080" enable-background="new 0 0 1080 1080" xml:space="preserve">
<g>
	<g>
		<g>
			<path fill="#46C8F5" d="M614.9,701.5L388.3,305.1c-31.5,35.7-50.7,82.5-50.7,133.8c0,57.3,26.9,117.1,65.2,153.9
				c22.4,25.7,40.8,38.4,48,65.4c17.4,64.9,1,81.3,9.4,85.9c8.4,4.5,150.5,6.3,154.1,0C617.3,738.8,610.7,725.5,614.9,701.5z"/>
			<path fill="#FFCD34" d="M548,236.7c-56.5-2.2-108.1,19-146.1,54.5l219.9,385.7c1.4-5.8,2.9-11.9,4.8-18.8
				c10.5-29.9,28-48,46.4-66.5c43.1-37.6,70.1-93.1,69.4-154.9C741.2,329.3,655.2,240.8,548,236.7z"/>
		</g>
		<g>
			<path fill="#46C8F5" d="M586.7,826.3c-2.8,0.9-26.1,1.4-49.8,1.5c-23.8,0-47-0.5-49.8-1.5c-5.7-1.9-11.1-6.2-11.1,1.5l0,1.6
				c0,7.8,4.3,14.1,9.5,14.1l51.5,0h51.5c5.2,0,9.5-6.3,9.5-14.1v-1.6C597.8,820,592.4,824.4,586.7,826.3z"/>
			<path fill="#46C8F5" d="M601.4,794.2c-3.6,1.2-33.8,1.9-64.6,1.9c0,0-61-0.7-64.6-1.9c-7.4-2.5-14.4-8.1-14.4,1.9l0,2
				c0,10,5.5,18.3,12.3,18.3l66.7,0h66.7c6.7,0,12.3-8.2,12.3-18.3v-2C615.8,786.1,608.8,791.7,601.4,794.2z"/>
			<path fill="#46C8F5" d="M601.4,759.3c-3.6,1.3-33.8,2-64.6,2.1c-30.8,0-61-0.7-64.6-2.1c-7.4-2.8-14.4-8.9-14.4,2.1l0,2.2
				c0,11.1,5.5,20.1,12.3,20.1l66.7,0h66.7c6.7,0,12.3-9.1,12.3-20.1v-2.2C615.8,750.4,608.8,756.5,601.4,759.3z"/>
		</g>
	</g>
	<g>
		<path fill="#FFCD34" d="M255.2,864.7c30-280.6-43.7-312.8-43.4-324.6c0.3-11.9,73.6-44.1,44.4-324.8
			c-5.2-49.8,47.3-61.7,47.3-61.7s-52.4-27.1-75.4,41.5c-23.1,68.5,26.9,268.4-44,324c-18.8,14.8-21.7,19.3-21.8,20.7
			c0.2,1.4,3,6.1,21.7,20.9c70.7,55.8,20.2,255.6,43,324.2c22.9,68.6,75.3,41.7,75.3,41.7S249.9,914.4,255.2,864.7z"/>
		<path fill="#FFCD34" d="M824.8,864.7c-30-280.6,43.7-312.8,43.4-324.6c-0.3-11.9-73.6-44.1-44.4-324.8
			c5.2-49.8-47.3-61.7-47.3-61.7s52.4-27.1,75.4,41.5c23.1,68.5-26.9,268.4,44,324c18.8,14.8,21.7,19.3,21.8,20.7
			c-0.2,1.4-3,6.1-21.7,20.9c-70.7,55.8-20.2,255.6-43,324.2c-22.9,68.6-75.3,41.7-75.3,41.7S830.1,914.4,824.8,864.7z"/>
	</g>
</g>
</svg>
